<svg width="40" height="40" viewBox="0 0 40 40" fill="none" xmlns="http://www.w3.org/2000/svg">
<g clip-path="url(#clip0_1_754)">
<path d="M40 20C40 8.95431 31.0457 0 20 0C8.95431 0 0 8.95431 0 20C0 31.0457 8.95431 40 20 40C31.0457 40 40 31.0457 40 20Z" fill="#424106"/>
<path d="M24.788 9.59585C21.9503 9.66775 19.674 11.9904 19.674 14.8458C19.674 15.2569 19.7181 15.6588 19.808 16.0438C15.4427 15.8245 11.5726 13.7336 8.982 10.5558C8.52988 11.3312 8.27 12.2344 8.27 13.1978C8.27 15.0198 9.19864 16.6262 10.608 17.5678C9.74742 17.5403 8.93631 17.3032 8.228 16.9098C8.2276 16.9317 8.228 16.9555 8.228 16.9778C8.228 19.5222 10.039 21.6425 12.442 22.1258C12.0013 22.2454 11.5371 22.3098 11.058 22.3098C10.7192 22.3098 10.3906 22.2777 10.07 22.2158C10.7388 24.3023 12.676 25.8218 14.974 25.8638C13.1764 27.2727 10.9152 28.1118 8.454 28.1118C8.03046 28.1118 7.61106 28.0887 7.2 28.0398C9.52501 29.5308 12.2842 30.3998 15.25 30.3998C24.9112 30.3998 30.194 22.3966 30.194 15.4558C30.194 15.2282 30.1899 14.9994 30.18 14.7738C31.2058 14.0349 32.0964 13.1092 32.8 12.0558C31.8589 12.4742 30.8467 12.7576 29.784 12.8838C30.8691 12.2343 31.7016 11.2053 32.094 9.97784C31.0791 10.5801 29.9548 11.0179 28.758 11.2538C27.8002 10.2332 26.4347 9.59585 24.924 9.59585C24.8787 9.59585 24.833 9.5947 24.788 9.59585Z" fill="#FFFAF4"/>
</g>
<defs>
<clipPath id="clip0_1_754">
<rect width="40" height="40" fill="white"/>
</clipPath>
</defs>
</svg>
