<svg width="44" height="44" viewBox="0 0 44 44" fill="none" xmlns="http://www.w3.org/2000/svg">
<path fill-rule="evenodd" clip-rule="evenodd" d="M28.1807 19.052V19.048C28.5153 19.048 28.8507 19.0547 29.186 19.0467C29.6167 19.036 29.9673 18.6667 29.9673 18.2353C29.9673 17.5933 29.9673 16.9507 29.9673 16.3087C29.9673 15.848 29.6027 15.482 29.1433 15.4813C28.5027 15.4813 27.862 15.4807 27.2213 15.4813C26.7627 15.482 26.3973 15.8493 26.3973 16.31C26.3967 16.9467 26.3947 17.5833 26.3993 18.22C26.4 18.3153 26.418 18.414 26.448 18.504C26.5633 18.8427 26.874 19.0507 27.254 19.0527C27.5627 19.0527 27.872 19.052 28.1807 19.052ZM22 19.878C19.744 19.8767 17.91 21.692 17.8787 23.9373C17.846 26.244 19.692 28.0713 21.9053 28.1187C24.208 28.168 26.0707 26.328 26.1193 24.09C26.1693 21.7833 24.308 19.8767 22 19.878ZM14.0307 22.0773V22.132C14.0307 25.142 14.03 28.152 14.0307 31.162C14.0307 31.5947 14.4053 31.9673 14.8387 31.9673C19.612 31.968 24.3847 31.968 29.158 31.9673C29.5953 31.9673 29.968 31.596 29.968 31.1593C29.9687 28.1533 29.968 25.146 29.968 22.1407V22.078H28.0267C28.3007 22.954 28.3847 23.8453 28.2773 24.754C28.17 25.6627 27.8767 26.508 27.4 27.2893C26.9233 28.0707 26.304 28.7193 25.5473 29.2347C23.5847 30.572 21 30.6893 18.9167 29.52C17.864 28.93 17.0373 28.1067 16.46 27.0447C15.6007 25.4627 15.4633 23.8013 15.9673 22.0773C15.322 22.0773 14.6807 22.0773 14.0307 22.0773ZM30.1367 34.17C30.2427 34.1527 30.3487 34.1373 30.4533 34.1147C31.284 33.938 31.9627 33.2453 32.1253 32.41C32.142 32.3187 32.1553 32.228 32.17 32.1373V15.8627C32.156 15.774 32.1433 15.684 32.1267 15.5953C31.948 14.684 31.196 13.9767 30.2733 13.85C30.2347 13.8453 30.198 13.8367 30.16 13.83H13.8407C13.7427 13.848 13.6433 13.8613 13.5467 13.8833C12.6453 14.0887 11.9787 14.814 11.85 15.7273C11.8447 15.7653 11.8367 15.8033 11.8307 15.8413V32.16C11.8493 32.2627 11.864 32.3673 11.8873 32.47C12.0867 33.3513 12.8387 34.0347 13.734 34.15C13.7767 34.1553 13.8207 34.164 13.864 34.17H30.1367ZM22 44C10.9547 44 2 35.0453 2 24C2 12.954 10.9547 4 22 4C33.0453 4 42 12.954 42 24C42 35.0453 33.0453 44 22 44Z" fill="#424106"/>
</svg>
