<svg width="40" height="40" viewBox="0 0 40 40" fill="none" xmlns="http://www.w3.org/2000/svg">
<g clip-path="url(#clip0_1_748)">
<path d="M40 20C40 8.95431 31.0457 0 20 0C8.95431 0 0 8.95431 0 20C0 31.0457 8.95431 40 20 40C31.0457 40 40 31.0457 40 20Z" fill="#424106"/>
<path d="M20.9022 12.7785C19.5397 12.7848 18.6709 12.7865 17.4461 12.7865C16.4217 12.7865 15.8464 13.2011 15.8281 13.4485C15.8113 13.6746 16.3342 13.8575 16.6521 14.0405C16.959 14.2307 17.2361 14.8346 17.2361 15.2425V18.8006C17.2361 19.1388 17.1593 19.3743 16.8861 19.5946C16.756 19.6996 16.6013 19.7276 16.4341 19.7266C16.2988 19.7259 16.1148 19.7006 15.9881 19.5366C14.6387 17.79 14.6343 17.5743 12.744 14.0545C12.6523 13.8838 12.5617 13.7027 12.374 13.5665C12.1862 13.4303 11.908 13.3405 11.462 13.3405C9.94258 13.3405 9.00491 13.3625 8.00586 13.3625C7.06023 13.3625 7.15118 13.9424 7.27785 14.2065C8.41157 16.5705 9.56268 18.8276 10.8859 21.1187C12.4356 23.8017 13.8523 25.4133 16.2361 26.5708C16.7894 26.8395 17.7871 27.1168 18.9401 27.1168H21.3902C21.705 27.1168 22.2282 26.8685 22.2282 26.5348V24.6968C22.2282 24.1711 22.7523 23.98 23.0382 23.8508C23.3751 23.6985 23.7283 23.9385 23.9063 24.1288C25.276 25.593 25.1203 25.4337 26.3683 26.7448C26.6503 27.0411 26.8633 27.1968 27.3964 27.1968C30.9959 27.1968 30.9989 27.2037 31.8585 27.1968C32.0945 27.195 32.445 26.8408 32.5225 26.7028C32.6247 26.5206 32.8572 25.8702 32.4845 25.4488C31.2195 24.0183 29.9301 22.7086 28.6944 21.4087C28.6002 21.3096 28.529 21.1754 28.5264 21.0387C28.5236 20.8892 28.607 20.744 28.6944 20.6227C30.0804 18.6989 31.2252 17.07 32.4705 15.0465C32.8753 14.3888 32.8229 13.9229 32.7485 13.7625C32.6623 13.5767 32.397 13.3201 32.0925 13.3185C30.4296 13.3091 29.7103 13.2859 27.9364 13.2885C27.4065 13.2893 26.9373 13.2486 26.6463 13.8865C25.8667 15.5959 24.5947 18.2043 23.4903 19.2886C23.2863 19.4888 23.014 19.6375 22.7762 19.6386C22.5385 19.6398 22.2857 19.4779 22.2502 19.0906C22.223 17.2302 22.2457 15.643 22.2362 13.8205C22.2333 13.2634 21.9984 13.1201 21.8202 12.9965C21.5785 12.8288 21.1964 12.7771 20.9022 12.7785Z" fill="#FFFAF4"/>
</g>
<defs>
<clipPath id="clip0_1_748">
<rect width="40" height="40" fill="white"/>
</clipPath>
</defs>
</svg>
