<svg width="40" height="40" viewBox="0 0 40 40" fill="none" xmlns="http://www.w3.org/2000/svg">
<g clip-path="url(#clip0_1_761)">
<path fill-rule="evenodd" clip-rule="evenodd" d="M20 40C31.0457 40 40 31.0457 40 20C40 8.95431 31.0457 0 20 0C8.95431 0 0 8.95431 0 20C0 31.0457 8.95431 40 20 40Z" fill="#424106"/>
<path fill-rule="evenodd" clip-rule="evenodd" d="M27.811 19.2307H12.1887C9.70508 19.2307 7.69231 21.0633 7.69231 23.5316V27.8378C7.69231 30.3058 9.70508 32.3076 12.1887 32.3076H27.811C30.2941 32.3076 32.3077 30.3061 32.3077 27.8378V23.5656C32.3077 21.0973 30.2941 19.2307 27.811 19.2307ZM15.2523 22.7332H13.7459V29.6946H12.2897V22.7332H10.7837V21.5486H15.2523V22.7332ZM19.1108 29.9919H17.8191V29.3333C17.5792 29.5771 17.3324 29.7627 17.0733 29.8884C16.8155 30.0191 16.5657 30.0809 16.3229 30.0809C16.023 30.0809 15.8005 29.9919 15.6473 29.8118C15.4977 29.632 15.4205 29.3661 15.4205 29.0064V23.9818H16.7122V28.5926C16.7122 28.7347 16.7403 28.8374 16.7922 28.9C16.8482 28.9657 16.9367 28.9956 17.058 28.9956C17.1511 28.9956 17.2726 28.9541 17.4176 28.8699C17.5644 28.7848 17.697 28.6773 17.8185 28.5469V23.9818H19.1102V29.9919H19.1108ZM24.5232 28.586C24.5232 29.0104 24.4223 29.3365 24.2195 29.5644C24.0182 29.7918 23.7241 30.069 23.3418 30.069C23.0874 30.069 22.4997 30.0265 22.303 29.9383C22.1055 29.8514 21.9193 29.717 21.7507 29.5314V29.9917H20.4445V21.6806H21.7507V24.4693C21.9257 24.2876 22.1104 24.1473 22.3039 24.0525C22.5014 23.9559 23.0622 23.9094 23.2629 23.9094C23.6722 23.9094 23.9843 23.8709 24.1995 24.1273C24.4159 24.3837 24.523 24.759 24.523 25.2509V28.586H24.5232ZM29.2215 27.0324H26.7504V28.1648C26.7504 28.4809 26.7916 28.7003 26.8763 28.8231C26.9628 28.9462 27.1084 29.0059 27.3143 29.0059C27.529 29.0059 27.6784 28.9538 27.7639 28.8501C27.8478 28.7455 27.8924 28.5184 27.8924 28.1645V27.8909H29.2218V28.1994C29.2218 28.8152 29.0611 29.2794 28.7345 29.5926C28.4125 29.9021 27.929 30.0569 27.2847 30.0569C26.7058 30.0569 26.2495 29.8926 25.9176 29.5617C25.5869 29.234 25.4184 28.7785 25.4184 28.1994V25.4997C25.4184 24.9803 25.6017 24.553 25.9681 24.2253C26.3339 23.8975 26.8026 23.7341 27.3822 23.7341C27.9739 23.7341 28.4285 23.8859 28.7461 24.1896C29.0635 24.4941 29.2221 24.9303 29.2221 25.5V27.0324H29.2215ZM27.3265 24.7851C27.12 24.7851 26.9741 24.8392 26.8839 24.9515C26.7931 25.0566 26.7504 25.2377 26.7504 25.4899V26.0973H27.8924V25.4899C27.8924 25.2377 27.8463 25.0566 27.7561 24.9515C27.6685 24.8392 27.5229 24.7851 27.3265 24.7851ZM22.2914 24.8638C22.1995 24.8638 22.1072 24.882 22.0173 24.9219C21.9274 24.9604 21.8389 25.0236 21.751 25.1057V28.8498C21.8549 28.9464 21.9579 29.0209 22.0573 29.0637C22.1571 29.1052 22.2595 29.1284 22.3689 29.1284C22.5278 29.1284 23.0059 29.0859 23.0804 28.9998C23.1538 28.9148 23.1921 28.7785 23.1921 28.5862V25.4817C23.1921 25.2779 23.148 25.1247 23.0564 25.0196C22.9624 24.9161 22.4652 24.8638 22.2914 24.8638ZM23.9138 17.7378C24.1769 17.7378 24.4479 17.6621 24.7269 17.5162C25.0082 17.3684 25.2774 17.152 25.5335 16.8696V17.6364H26.9365V10.7091H25.5335V15.9679C25.4038 16.1185 25.2589 16.242 25.1024 16.3404C24.9441 16.4376 24.8133 16.4857 24.7104 16.4857C24.579 16.4857 24.4828 16.4492 24.4258 16.3746C24.3671 16.3017 24.3349 16.1834 24.3349 16.0206V10.7091H22.935V16.499C22.935 16.9118 23.0178 17.2205 23.1805 17.425C23.3454 17.6325 23.5878 17.7378 23.9138 17.7378ZM19.7876 17.8119C20.4246 17.8119 20.9245 17.6428 21.2893 17.3059C21.6511 16.9668 21.8326 16.5045 21.8326 15.9115V12.332C21.8326 11.8051 21.6469 11.3706 21.2787 11.036C20.9066 10.7022 20.4315 10.5342 19.8511 10.5342C19.2142 10.5342 18.7059 10.6931 18.329 11.0108C17.9521 11.3286 17.7637 11.7545 17.7637 12.2931V15.8841C17.7637 16.4733 17.9477 16.9395 18.315 17.2888C18.683 17.6367 19.1739 17.8119 19.7876 17.8119ZM19.2061 12.24C19.2061 12.0891 19.2598 11.9678 19.3655 11.8728C19.4737 11.7796 19.6121 11.734 19.7829 11.734C19.9688 11.734 20.1187 11.7796 20.233 11.8728C20.3468 11.9678 20.4039 12.0891 20.4039 12.24V16.0143C20.4039 16.1994 20.3477 16.3462 20.2353 16.4526C20.1232 16.559 19.9727 16.6112 19.7826 16.6112C19.5975 16.6112 19.4544 16.5606 19.3551 16.4545C19.2559 16.3503 19.2058 16.2047 19.2058 16.0143V12.24H19.2061ZM14.2342 17.6367H15.8124V13.1881L17.6493 7.69226H16.0453L15.0684 11.4466H14.9692L13.9442 7.69226H12.3542L14.2339 13.3631V17.6367H14.2342Z" fill="#FFFAF4"/>
</g>
<defs>
<clipPath id="clip0_1_761">
<rect width="40" height="40" fill="white"/>
</clipPath>
</defs>
</svg>
